<?xml version="1.0" encoding="UTF-8" standalone="no"?>
<!-- Created with Inkscape (http://www.inkscape.org/) -->

<svg
   xmlns:dc="http://purl.org/dc/elements/1.1/"
   xmlns:cc="http://creativecommons.org/ns#"
   xmlns:rdf="http://www.w3.org/1999/02/22-rdf-syntax-ns#"
   xmlns:svg="http://www.w3.org/2000/svg"
   xmlns="http://www.w3.org/2000/svg"
   xmlns:sodipodi="http://sodipodi.sourceforge.net/DTD/sodipodi-0.dtd"
   xmlns:inkscape="http://www.inkscape.org/namespaces/inkscape"
   width="19.969496mm"
   height="18.00268mm"
   viewBox="0 0 70.758056 63.789023"
   id="svg2"
   version="1.1"
   inkscape:version="0.91 r13725"
   sodipodi:docname="teamahuntsic.svg">
  <defs
     id="defs4" />
  <sodipodi:namedview
     id="base"
     pagecolor="#ffffff"
     bordercolor="#666666"
     borderopacity="1.0"
     inkscape:pageopacity="0.0"
     inkscape:pageshadow="2"
     inkscape:zoom="11.2"
     inkscape:cx="-17.683559"
     inkscape:cy="33.796626"
     inkscape:document-units="px"
     inkscape:current-layer="layer2"
     showgrid="false"
     inkscape:window-width="1920"
     inkscape:window-height="1017"
     inkscape:window-x="-8"
     inkscape:window-y="-8"
     inkscape:window-maximized="1"
     fit-margin-top="0"
     fit-margin-left="0"
     fit-margin-right="0"
     fit-margin-bottom="0" />
  <metadata
     id="metadata7">
    <rdf:RDF>
      <cc:Work
         rdf:about="">
        <dc:format>image/svg+xml</dc:format>
        <dc:type
           rdf:resource="http://purl.org/dc/dcmitype/StillImage" />
        <dc:title />
      </cc:Work>
    </rdf:RDF>
  </metadata>
  <g
     inkscape:groupmode="layer"
     id="layer2"
     inkscape:label="bg"
     transform="translate(-110.27013,-324.88554)">
    <g
       id="text3336"
       style="font-style:normal;font-weight:normal;font-size:74.81880188px;line-height:125%;font-family:sans-serif;letter-spacing:0px;word-spacing:0px;fill:#ff0000;fill-opacity:1;stroke:none;stroke-width:1px;stroke-linecap:butt;stroke-linejoin:miter;stroke-opacity:1" />
    <text
       xml:space="preserve"
       style="font-style:normal;font-weight:normal;font-size:40px;line-height:125%;font-family:sans-serif;letter-spacing:0px;word-spacing:0px;fill:#151e29;fill-opacity:1;stroke:none;stroke-width:1px;stroke-linecap:butt;stroke-linejoin:miter;stroke-opacity:1;"
       x="110.17857"
       y="388.55859"
       id="text4152"
       sodipodi:linespacing="125%"><tspan
         sodipodi:role="line"
         id="tspan4154"
         x="110.17857"
         y="388.55859"
         style="font-style:normal;font-variant:normal;font-weight:normal;font-stretch:normal;font-size:12.5px;font-family:Calibri;-inkscape-font-specification:Calibri;fill:#151e29;fill-opacity:1;">TeamAhuntsic</tspan></text>
    <path
       inkscape:connector-curvature="0"
       id="rect4245"
       style="fill:#151e29;fill-opacity:1"
       d="m 135.71428,334.29077 21.51786,0 0,26.60714 -21.51786,0 z m 21.67168,35.2011 -21.99264,0 -3.4706,9.93687 -14.13812,0 20.20254,-54.5432 16.76847,0 20.20254,54.5432 -14.13813,0 -3.43406,-9.93687 z m -18.48551,-10.11954 14.94184,0 -7.45265,-21.70037 -7.48919,21.70037 z" />
    <path
       style="fill:#151e29;fill-opacity:1;fill-rule:evenodd;stroke:#1b2737;stroke-width:1.12235463;stroke-linecap:butt;stroke-linejoin:miter;stroke-miterlimit:4;stroke-dasharray:none;stroke-opacity:1"
       d="m 146.12762,333.5756 -1.6124,2.7389 -1.61436,2.73699 3.22676,0 3.22676,0 -1.6124,-2.73699 -1.61436,-2.7389 z m -0.58438,5.65401 0,25.47947 0.81696,0.85423 -0.54529,0.57076 -0.27167,-0.28346 0,2.94384 1.02217,0 0,-10.67789 -0.11531,0.10725 -0.56679,-0.52479 0.6821,-0.63014 0,-17.83927 -1.02217,0 z m 1.02217,17.83927 0,1.04768 7.18252,-6.64424 -0.43388,-0.4003 -0.27557,0.008 -6.47307,5.9892 z m 6.47307,-5.9892 0.14267,-0.13216 0.1329,0.1245 0.64887,-0.0211 0.12704,-4.05281 -1.17461,0 0,4.08537 0.12313,-0.004 z m -7.49524,14.77093 0,-1.14153 -5.90628,-6.17882 -0.51597,-0.046 -0.30684,0.32177 6.72909,7.04454 z m -6.42225,-7.36631 0.23649,-0.24708 0.27948,0.29304 0.0665,0.006 0,-5.36672 -0.51206,0 -0.58437,0 0.0313,5.27287 0.48274,0.0421 z m 0.0704,-5.31501 c 1.69371,0 3.0665,-1.34532 3.0665,-3.00513 0,-1.65981 -1.3728,-3.00513 -3.0665,-3.00513 -1.6937,0 -3.0665,1.34532 -3.0665,3.00513 0,1.65981 1.37279,3.00513 3.0665,3.00513 z m 11.88293,-11.09543 0,4.75956 4.85675,0 0,-4.75956 -4.85675,0 z"
       id="rect3352-6-0"
       inkscape:connector-curvature="0" />
  </g>
</svg>
